<svg width="29" height="30" viewBox="0 0 29 30" fill="none" xmlns="http://www.w3.org/2000/svg">
<path d="M24.5595 4.35962C21.8568 1.54991 18.2631 0.00171426 14.4342 0C6.54421 0 0.123333 6.66844 0.120174 14.8649C0.119255 17.4849 0.778209 20.0425 2.0307 22.2969L0 30L7.58804 27.9329C9.67869 29.1174 12.0326 29.7416 14.4281 29.7426H14.4341C22.3229 29.7426 28.7448 23.073 28.7481 14.8769C28.7495 10.9046 27.2618 7.16951 24.5595 4.35962ZM14.4342 27.2319H14.4296C12.2944 27.2307 10.2006 26.6352 8.37424 25.5093L7.9396 25.2416L3.4367 26.4682L4.63892 21.9088L4.35573 21.4414C3.16472 19.474 2.53596 17.2004 2.53686 14.8658C2.53947 8.05322 7.87626 2.51083 14.4387 2.51083C17.6166 2.5122 20.6035 3.79908 22.8498 6.13442C25.0961 8.46973 26.3322 11.5742 26.3312 14.8759C26.3285 21.6887 20.9915 27.2319 14.4342 27.2319Z" fill="white"/>
<path d="M0.657246 29.1453L2.59519 21.794C1.3996 19.6426 0.770866 17.2017 0.771621 14.7018C0.774756 6.87993 6.90239 0.516287 14.4313 0.516287C18.0855 0.518001 21.5151 1.9954 24.0938 4.67683C26.673 7.35823 28.0925 10.9224 28.091 14.7129C28.0879 22.535 21.9599 28.8992 14.4319 28.8992C14.4322 28.8992 14.4313 28.8992 14.4319 28.8992H14.4258C12.1398 28.8984 9.89354 28.3023 7.89853 27.1727L0.657246 29.1453Z" fill="#00FF47"/>
<path fill-rule="evenodd" clip-rule="evenodd" d="M10.8972 8.55403C10.6324 7.94235 10.3536 7.93011 10.1016 7.91941C9.89557 7.91022 9.65965 7.91079 9.42411 7.91079C9.18838 7.91079 8.80533 8.00282 8.48139 8.37036C8.15726 8.73789 7.24382 9.6264 7.24382 11.4335C7.24382 13.2407 8.51085 14.9869 8.68746 15.2322C8.86426 15.4771 11.1333 19.304 14.7269 20.7762C17.7134 21.9997 18.3212 21.7563 18.9694 21.6951C19.6177 21.6339 21.0612 20.8068 21.3558 19.9491C21.6505 19.0916 21.6505 18.3565 21.5621 18.2029C21.4737 18.0498 21.238 17.958 20.8844 17.7743C20.5308 17.5906 18.7927 16.7019 18.4685 16.5795C18.1444 16.457 17.9087 16.3958 17.6729 16.7635C17.4372 17.1309 16.76 17.958 16.5538 18.2029C16.3475 18.4483 16.1413 18.4789 15.7877 18.2953C15.4341 18.111 14.2954 17.7236 12.9446 16.4723C11.8936 15.4989 11.184 14.2966 10.9777 13.9289C10.7714 13.5615 10.9556 13.3625 11.133 13.1794C11.2917 13.0149 11.4865 12.7507 11.6633 12.5362C11.8398 12.3217 11.8987 12.1686 12.0166 11.9238C12.1344 11.6785 12.0755 11.464 11.9871 11.2803C11.8987 11.0967 11.2116 9.28029 10.8972 8.55403Z" fill="white"/>
<path d="M24.4427 4.31238C21.7711 1.53493 18.2186 0.00453064 14.4337 0.00279188C6.63425 0.00279188 0.287082 6.59467 0.283947 14.697C0.283027 17.287 0.934415 19.8152 2.17253 22.0437L0.165163 29.6584L7.6661 27.615C9.73277 28.7859 12.0597 29.403 14.4276 29.4039H14.4336C22.2318 29.4039 28.58 22.8109 28.5833 14.7089C28.5846 10.7822 27.114 7.09002 24.4427 4.31238ZM14.4337 26.9221H14.4291C12.3184 26.9209 10.2486 26.3322 8.44327 25.2193L8.01361 24.9547L3.56241 26.1671L4.7508 21.6601L4.47088 21.1981C3.29353 19.2533 2.67199 17.0058 2.67291 14.698C2.67548 7.96361 7.951 2.48485 14.4381 2.48485C17.5796 2.4862 20.5321 3.7583 22.7527 6.06683C24.9732 8.37535 26.1951 11.4442 26.1942 14.708C26.1914 21.4426 20.9157 26.9221 14.4337 26.9221Z" fill="white"/>
</svg>
